<?xml version="1.0" encoding="UTF-8" standalone="no"?>
<svg width="800" height="600" xmlns="http://www.w3.org/2000/svg">
    <style>
        .box { fill: #f0f0f0; stroke: #333; stroke-width: 2; }
        .decision { fill: #ffe0b2; stroke: #333; stroke-width: 2; }
        .process { fill: #bbdefb; stroke: #333; stroke-width: 2; }
        .start-end { fill: #c8e6c9; stroke: #333; stroke-width: 2; rx: 20; ry: 20; }
        .arrow { stroke: #333; stroke-width: 2; fill: none; marker-end: url(#arrowhead); }
        .text { font-family: Arial, sans-serif; font-size: 12px; text-anchor: middle; }
        .small-text { font-family: Arial, sans-serif; font-size: 10px; text-anchor: middle; }
        .parameter { fill: #e1bee7; stroke: #333; stroke-width: 1; }
        .dotted { stroke-dasharray: 5,5; }
    </style>
    
    <defs>
        <marker id="arrowhead" markerWidth="10" markerHeight="7" refX="9" refY="3.5" orient="auto">
            <polygon points="0 0, 10 3.5, 0 7" fill="#333" />
        </marker>
    </defs>
    
    <rect x="0" y="0" width="800" height="600" fill="white" />
    
    <text x="400" y="30" font-family="Arial, sans-serif" font-size="20" text-anchor="middle" font-weight="bold">
        How Social Media Users Process Information
    </text>
    
    <!-- Starting point -->
    <rect x="350" y="60" width="100" height="40" class="start-end" />
    <text x="400" y="85" class="text">Content Received</text>
    
    <!-- Content properties extraction -->
    <rect x="350" y="130" width="100" height="50" class="process" />
    <text x="400" y="155" class="text">Extract Content</text>
    <text x="400" y="170" class="small-text">Properties</text>
    
    <!-- Trust Filter -->
    <rect x="350" y="210" width="100" height="50" class="process" />
    <text x="400" y="235" class="text">Apply Source</text>
    <text x="400" y="250" class="small-text">Trust Filter</text>
    
    <!-- Parameters affecting trust -->
    <rect x="520" y="210" width="120" height="50" class="parameter" />
    <text x="580" y="235" class="text">Trust in source type</text>
    <text x="580" y="250" class="small-text">Source credibility</text>
    
    <!-- Confirmation Bias Effect -->
    <rect x="350" y="290" width="100" height="50" class="process" />
    <text x="400" y="315" class="text">Calculate</text>
    <text x="400" y="330" class="small-text">Confirmation Bias</text>
    
    <!-- Parameters affecting confirmation bias -->
    <rect x="520" y="290" width="120" height="50" class="parameter" />
    <text x="580" y="315" class="text">Confirmation bias</text>
    <text x="580" y="330" class="small-text">Truth assessment</text>
    
    <!-- Critical Thinking -->
    <rect x="350" y="370" width="100" height="50" class="process" />
    <text x="400" y="395" class="text">Apply Critical</text>
    <text x="400" y="410" class="small-text">Thinking</text>
    
    <!-- Parameters affecting critical thinking -->
    <rect x="520" y="370" width="120" height="50" class="parameter" />
    <text x="580" y="395" class="text">Critical thinking</text>
    <text x="580" y="410" class="small-text">Source credibility</text>
    
    <!-- Content Acceptance Probability -->
    <rect x="350" y="450" width="100" height="50" class="process" />
    <text x="400" y="475" class="text">Calculate</text>
    <text x="400" y="490" class="small-text">Acceptance Factor</text>
    
    <!-- Accept Content? -->
    <polygon points="400,530 450,570 400,610 350,570" class="decision" />
    <text x="400" y="575" class="text">Accept</text>
    
    <!-- If Accepted -->
    <rect x="500" y="550" width="100" height="40" class="process" />
    <text x="550" y="575" class="text">Update Truth</text>
    
    <!-- If Rejected -->
    <rect x="230" y="550" width="100" height="40" class="process" />
    <text x="280" y="575" class="text">No Updates</text>
    
    <!-- Connection lines -->
    <path d="M 400 100 L 400 130" class="arrow" />
    <path d="M 400 180 L 400 210" class="arrow" />
    <path d="M 400 260 L 400 290" class="arrow" />
    <path d="M 400 340 L 400 370" class="arrow" />
    <path d="M 400 420 L 400 450" class="arrow" />
    <path d="M 400 500 L 400 530" class="arrow" />
    <path d="M 450 570 L 500 570" class="arrow" />
    <path d="M 350 570 L 330 570 L 330 570 L 330 570" class="arrow" />
    
    <!-- Parameter connections -->
    <path d="M 520 235 L 450 235" class="arrow dotted" />
    <path d="M 520 315 L 450 315" class="arrow dotted" />
    <path d="M 520 395 L 450 395" class="arrow dotted" />
    
    <!-- Legend -->
    <rect x="620" y="490" width="150" height="100" fill="white" stroke="#333" />
    <text x="695" y="510" class="text" font-weight="bold">Legend</text>
    
    <rect x="630" y="520" width="20" height="15" class="process" />
    <text x="685" y="530" class="small-text" text-anchor="start">Process Step</text>
    
    <rect x="630" y="545" width="20" height="15" class="parameter" />
    <text x="685" y="555" class="small-text" text-anchor="start">Parameter</text>
    
    <polygon points="640,570 650,580 640,590 630,580" class="decision" />
    <text x="685" y="580" class="small-text" text-anchor="start">Decision</text>
</svg>